<svg xmlns="http://www.w3.org/2000/svg"  viewBox="0 0 24 24" width="48px" height="48px"><path d="M 20.732422 2.0175781 C 20.304778 1.9692471 19.858058 2.0326721 19.431641 2.2363281 L 2.3886719 10.378906 A 1.0001 1.0001 0 0 0 2.3867188 10.378906 C 1.4037732 10.848905 0.92191338 11.886252 1.015625 12.818359 C 1.109337 13.750466 1.7886893 14.673247 2.8457031 14.9375 L 5.6660156 15.642578 C 6.7745184 15.919704 7.9493346 15.716068 8.9003906 15.082031 A 1.0001 1.0001 0 0 0 8.9121094 15.074219 L 9.4453125 14.708984 C 8.9896978 15.866704 9.3470324 17.266272 10.466797 17.978516 A 1.0001 1.0001 0 0 0 10.535156 18.017578 L 17.419922 21.681641 C 19.101004 22.57636 21.224098 21.448255 21.423828 19.554688 L 22.990234 4.7363281 A 1.0001 1.0001 0 0 0 22.990234 4.7265625 C 23.1255 3.3154184 22.015354 2.162571 20.732422 2.0175781 z M 20.576172 3.9785156 C 20.838968 3.9896922 21.030139 4.2103664 21 4.5351562 C 21 4.5351562 21 4.5371094 21 4.5371094 L 19.435547 19.34375 C 19.377277 19.896182 18.850293 20.177296 18.359375 19.916016 L 11.537109 16.285156 C 11.149284 16.033167 11.093466 15.5413 11.421875 15.212891 A 1.0001 1.0001 0 0 0 11.435547 15.199219 L 16.722656 9.6933594 A 1.0001 1.0001 0 0 0 15.435547 8.1757812 L 7.7910156 13.417969 C 7.3080716 13.739931 6.7138879 13.842046 6.1503906 13.701172 L 3.3320312 12.996094 C 3.0850451 12.934347 3.0243978 12.803534 3.0058594 12.619141 C 2.987321 12.434748 3.0199454 12.293595 3.25 12.183594 L 20.294922 4.0410156 C 20.392833 3.9942536 20.488573 3.9747901 20.576172 3.9785156 z"/></svg>