<svg width="131" height="136" viewBox="0 0 131 136" fill="none" xmlns="http://www.w3.org/2000/svg">
<path d="M31.8527 49.1914H43.2724H44.6999V62.1628H51.8372V49.1914H63.2568V86.8084H51.8372V73.837H43.2724V86.8084H31.8527V49.1914Z" fill="black"/>
<path d="M3.26561 0H124.98H131V136H128.183H0V130.213V0H3.26561ZM3.26561 8.92308V21.7021V132.9L128.183 127.526V2.06687L3.26561 8.92308Z" fill="black"/>
<path d="M75.1028 52.539C77.6907 50.3763 80.9561 49.1914 84.3287 49.1914H92.35C94.4844 49.1914 96.3512 50.6285 96.8971 52.6918V52.6918C97.001 53.0845 97.0536 53.4889 97.0536 53.895V56.918C97.0536 57.672 96.7276 58.3891 96.1595 58.8848V58.8848C95.7676 59.2267 95.2825 59.4437 94.7664 59.5081L85.882 60.6154C85.3659 60.6797 84.8808 60.8968 84.4889 61.2387V61.2387C83.9208 61.7343 83.5947 62.4515 83.5947 63.2054V72.6211C83.5947 73.3455 83.908 74.0346 84.4538 74.5108V74.5108C84.8667 74.871 85.3861 75.0861 85.9327 75.1231L95.85 75.7961C98.2111 75.9563 100.044 77.9183 100.044 80.2848V80.2848V80.2848C100.044 82.4121 98.9951 84.4117 97.2502 85.6285V85.6285C96.1525 86.394 94.8407 86.8084 93.5024 86.8084H85.415C81.3488 86.8084 77.3934 85.3122 74.3295 82.6389V82.6389C72.5609 81.096 71.1254 79.1815 70.1473 77.0481V77.0481C69.1544 74.8824 68.6404 72.5279 68.6404 70.1455V66.811C68.6404 63.6709 69.4618 60.5854 71.0232 57.861L71.8462 56.4249C72.6931 54.947 73.7958 53.6313 75.1028 52.539V52.539Z" fill="black"/>
</svg>
