<svg width="512" height="512" viewBox="0 0 512 512" fill="none" xmlns="http://www.w3.org/2000/svg">
<g clip-path="url(#clip0_245_15)">
<path d="M256 0C114.841 0 0 114.841 0 256C0 397.159 114.841 512 256 512C397.159 512 512 397.159 512 256C512 114.841 397.159 0 256 0ZM346.895 456.06C319.179 468.702 288.398 475.755 256 475.755C223.602 475.755 192.82 468.702 165.105 456.06V367.465C165.105 342.496 185.418 322.184 210.386 322.184H301.614C326.582 322.184 346.895 342.497 346.895 367.465V456.06ZM383.14 435.149V367.465C383.14 322.512 346.568 285.939 301.614 285.939H297.081C329.102 270.57 351.265 237.826 351.265 199.999C351.265 147.469 308.529 104.734 255.999 104.734C203.469 104.734 160.733 147.47 160.733 199.999C160.733 237.827 182.897 270.57 214.917 285.939H210.384C165.431 285.939 128.858 322.511 128.858 367.465V435.149C72.847 395.282 36.245 329.834 36.245 256C36.245 134.827 134.827 36.245 256 36.245C377.173 36.245 475.755 134.827 475.755 256C475.755 329.834 439.153 395.282 383.14 435.149ZM256 259.019C223.456 259.019 196.979 232.542 196.979 199.998C196.979 167.454 223.456 140.978 256 140.978C288.544 140.978 315.021 167.455 315.021 199.998C315.021 232.544 288.544 259.019 256 259.019Z" fill="white"/>
</g>
<defs>
<clipPath id="clip0_245_15">
<rect width="512" height="512" fill="white"/>
</clipPath>
</defs>
</svg>
