<svg width="742" height="329" viewBox="0 0 742 329" fill="none" xmlns="http://www.w3.org/2000/svg">
<path d="M71 119H96.4545H99.6364V150.379H115.545V119H141V210H115.545V178.621H96.4545V210H71V119Z" fill="white"/>
<path d="M351 72H369.909H372.273V97.5172H384.091V72H403V146H384.091V120.483H369.909V146H351V72Z" fill="white"/>
<path d="M7.27907 0H278.581H292V329H285.721H0V315V0H7.27907ZM7.27907 21.586V52.5V321.5L285.721 308.5V5L7.27907 21.586Z" fill="white"/>
<path d="M171.188 123.667C174.499 120.664 178.81 119 183.28 119H205.083C210.27 119 214.785 122.546 216.013 127.585V127.585C216.226 128.458 216.333 129.352 216.333 130.25V137.938C216.333 139.613 215.644 141.215 214.428 142.367V142.367C213.499 143.246 212.318 143.811 211.052 143.982L191.615 146.611C190.348 146.783 189.167 147.348 188.239 148.227V148.227C187.022 149.378 186.333 150.98 186.333 152.655V175.926C186.333 177.529 186.993 179.062 188.157 180.164V180.164C189.133 181.089 190.399 181.648 191.741 181.746L212.857 183.301C218.576 183.723 223 188.485 223 194.219V194.219V194.945C223 199.661 220.791 204.104 217.031 206.95V206.95C214.415 208.929 211.225 210 207.945 210H183.503C178.899 210 174.47 208.236 171.127 205.07L162.405 196.811C160.599 195.101 159.167 193.036 158.199 190.745L154.419 181.796C153.482 179.579 153 177.198 153 174.791V154.492C153 151.562 153.715 148.677 155.083 146.087L161.521 133.894C162.5 132.041 163.794 130.373 165.346 128.966L171.188 123.667Z" fill="white"/>
<path d="M363.069 187.227C366.441 183.879 371 182 375.752 182H389.003C393.241 182 396.91 184.942 397.831 189.078V189.078C397.975 189.724 398.048 190.383 398.048 191.044V197.599C398.048 198.84 397.566 200.033 396.704 200.927V200.927C395.97 201.688 395.004 202.185 393.957 202.34L379.852 204.428C378.806 204.583 377.84 205.08 377.105 205.842V205.842C376.243 206.735 375.762 207.928 375.762 209.169V228.492C375.762 229.673 376.22 230.809 377.041 231.659V231.659C377.812 232.459 378.849 232.95 379.957 233.039L394.756 234.232C399.413 234.607 403 238.496 403 243.167V243.167V244.385C403 247.844 401.459 251.123 398.795 253.329V253.329C396.712 255.055 394.091 256 391.385 256H375.979C371.093 256 366.417 254.014 363.025 250.498L358.48 245.787C356.812 244.058 355.507 242.012 354.642 239.77L352.207 233.462C351.409 231.394 351 229.197 351 226.981V211.349C351 208.64 351.611 205.967 352.788 203.528L357.088 194.613C357.975 192.774 359.169 191.099 360.618 189.66L363.069 187.227Z" fill="white"/>
<path fill-rule="evenodd" clip-rule="evenodd" d="M452.913 184.713C449.813 182.935 446.302 182 442.728 182H431.667C426.46 182 421.533 184.352 418.258 188.399V188.399C417.587 189.229 416.994 190.12 416.487 191.059L413.315 196.94C410.483 202.191 409 208.064 409 214.03V226.997C409 229.276 409.301 231.544 409.894 233.744V233.744C410.667 236.611 411.927 239.324 413.619 241.764L414.265 242.695C420.043 251.027 429.383 256.181 439.512 256.627L443.199 256.789C446.386 256.929 449.574 256.63 452.694 255.966C452.769 255.95 452.842 255.934 452.913 255.919V255.919C458.319 254.777 461.654 249.745 462.743 244.328L463.53 240.414C463.843 238.86 464 237.278 464 235.692V230.43V209.949C464 206.628 463.512 203.325 462.552 200.146L461.732 197.434C460.203 192.372 457.117 187.92 452.913 184.713V184.713V184.713ZM432.662 232.677C432.11 232.677 431.662 232.23 431.662 231.677V209.695C431.662 209.143 432.11 208.695 432.662 208.695H443.597C444.15 208.695 444.597 209.143 444.597 209.695V231.677C444.597 232.23 444.15 232.677 443.597 232.677H432.662Z" fill="white"/>
<path d="M415 73C415 72.4477 415.448 72 416 72H433.174C433.726 72 434.174 72.4477 434.174 73V124.586C434.174 125.138 434.622 125.586 435.174 125.586H443.826C444.378 125.586 444.826 125.138 444.826 124.586V73C444.826 72.4477 445.274 72 445.826 72H463C463.552 72 464 72.4477 464 73V130.69V133.217C464 140.277 458.277 146 451.217 146V146H427.783L426.901 145.943C420.207 145.507 415 139.95 415 133.241V133.241V73Z" fill="white"/>
<path d="M538 182H553.636L565.364 212.621L567.318 182H581V256H565.364L553.636 225.379L551.682 253.448H538V182Z" fill="white"/>
<path d="M481 72H497.727L510.273 102.621L512.364 72H527V146H510.273L497.727 115.379L495.636 143.448H481V72Z" fill="white"/>
<path fill-rule="evenodd" clip-rule="evenodd" d="M677.751 72H648C647.448 72 647 72.4477 647 73V145C647 145.552 647.448 146 648 146H662.4C662.953 146 663.4 145.552 663.4 145V121.483C663.4 120.93 663.848 120.483 664.4 120.483H666.501C667.053 120.483 667.501 120.93 667.501 121.483V128.138V145C667.501 145.552 667.948 146 668.501 146L683.571 145.999H686.886C687.535 145.999 688.012 145.39 687.857 144.76L684.489 131.137L681.895 118.224C681.792 117.708 681.896 117.172 682.185 116.732L689.635 105.399C689.872 105.038 689.986 104.61 689.96 104.179L688.115 73.8785C688.051 72.8231 687.176 72 686.119 72H677.751ZM663.446 104.843C662.893 104.843 662.446 104.395 662.446 103.843V92.1237C662.446 91.5714 662.893 91.1237 663.446 91.1237H672.467C673.02 91.1237 673.467 91.5714 673.467 92.1237V103.843C673.467 104.395 673.02 104.843 672.467 104.843H663.446Z" fill="white"/>
<path fill-rule="evenodd" clip-rule="evenodd" d="M510.896 182H479C478.448 182 478 182.448 478 183V255C478 255.552 478.448 256 479 256H494.545C495.097 256 495.545 255.552 495.545 255V231.483C495.545 230.93 495.992 230.483 496.545 230.483H498.931C499.483 230.483 499.931 230.93 499.931 231.483V238.138V255C499.931 255.552 500.379 256 500.931 256L517.122 255.999H520.736C521.392 255.999 521.871 255.378 521.703 254.744L518.105 241.137L515.341 228.273C515.224 227.728 515.339 227.159 515.66 226.703L523.594 215.419C523.857 215.046 523.984 214.594 523.954 214.139L521.983 183.87C521.915 182.818 521.042 182 519.988 182H510.896ZM495.523 214.843C494.971 214.843 494.523 214.395 494.523 213.843V202.124C494.523 201.571 494.971 201.124 495.523 201.124H505.314C505.866 201.124 506.314 201.571 506.314 202.124V213.843C506.314 214.395 505.866 214.843 505.314 214.843H495.523Z" fill="white"/>
<path fill-rule="evenodd" clip-rule="evenodd" d="M677.751 182H648C647.448 182 647 182.448 647 183V255C647 255.552 647.448 256 648 256H662.4C662.953 256 663.4 255.552 663.4 255V231.483C663.4 230.93 663.848 230.483 664.4 230.483H666.501C667.053 230.483 667.501 230.93 667.501 231.483V238.138V255C667.501 255.552 667.948 256 668.501 256L683.571 255.999H686.886C687.535 255.999 688.012 255.39 687.857 254.76L684.489 241.137L681.895 228.224C681.792 227.708 681.896 227.172 682.185 226.732L689.635 215.399C689.872 215.038 689.986 214.61 689.96 214.179L688.115 183.878C688.051 182.823 687.176 182 686.119 182H677.751ZM663.446 214.843C662.893 214.843 662.446 214.395 662.446 213.843V202.124C662.446 201.571 662.893 201.124 663.446 201.124H672.467C673.02 201.124 673.467 201.571 673.467 202.124V213.843C673.467 214.395 673.02 214.843 672.467 214.843H663.446Z" fill="white"/>
<path d="M709.581 74.808C711.381 73.2763 713.641 72.39 716.002 72.29L722.846 72H733.678C734.951 72 736.204 72.3091 737.331 72.9006V72.9006C739.606 74.0956 741.153 76.3283 741.473 78.8788L742 83.0807L741.454 85.6499C740.532 89.9951 736.695 93.1025 732.253 93.1025H726.368C724.423 93.1025 722.846 94.6791 722.846 96.6238V96.6238C722.846 97.7657 723.4 98.8367 724.332 99.4969L730.558 103.909V103.909C737.697 109.808 741.376 118.911 740.34 128.113L739.872 132.273L739.506 135.813C739.265 138.147 738.478 140.392 737.207 142.365L736.43 143.572C735.046 145.722 732.954 147.321 730.515 148.091V148.091C729.662 148.36 728.779 148.525 727.886 148.579L712.143 149.549C707.878 149.811 704.017 147.036 702.907 142.909V142.909L702.128 137.6C701.484 133.207 704.214 129.024 708.494 127.845V127.845C709.216 127.646 709.96 127.54 710.709 127.53L717.151 127.443C719.129 127.416 720.718 125.805 720.718 123.827V123.827C720.718 122.745 720.234 121.721 719.398 121.034L712.269 115.174C709.866 113.2 707.869 110.728 706.43 107.971V107.971C704.646 104.555 703.708 100.712 703.737 96.8576L703.801 88.184C703.839 83.127 705.924 78.3011 709.581 74.808V74.808V74.808Z" fill="white"/>
<path d="M596 73C596 72.4477 596.448 72 597 72H626C626.552 72 627 72.4477 627 73V88.8621C627 89.4144 626.552 89.8621 626 89.8621H612.5C611.948 89.8621 611.5 90.3098 611.5 90.8621V99.069C611.5 99.6213 611.948 100.069 612.5 100.069H622.125C622.677 100.069 623.125 100.517 623.125 101.069V116.931C623.125 117.483 622.677 117.931 622.125 117.931H612.5C611.948 117.931 611.5 118.379 611.5 118.931V127.138C611.5 127.69 611.948 128.138 612.5 128.138H626C626.552 128.138 627 128.586 627 129.138V145C627 145.552 626.552 146 626 146H597C596.448 146 596 145.552 596 145V73Z" fill="white"/>
<path d="M601 183C601 182.448 601.448 182 602 182H632C632.552 182 633 182.448 633 183V198.862C633 199.414 632.552 199.862 632 199.862H618C617.448 199.862 617 200.31 617 200.862V209.069C617 209.621 617.448 210.069 618 210.069H628C628.552 210.069 629 210.517 629 211.069V226.931C629 227.483 628.552 227.931 628 227.931H618C617.448 227.931 617 228.379 617 228.931V237.138C617 237.69 617.448 238.138 618 238.138H632C632.552 238.138 633 238.586 633 239.138V255C633 255.552 632.552 256 632 256H602C601.448 256 601 255.552 601 255V183Z" fill="white"/>
<path d="M541 73C541 72.4477 541.448 72 542 72H580C580.552 72 581 72.4477 581 73V91.4138C581 91.9661 580.552 92.4138 580 92.4138H571.474C570.921 92.4138 570.474 92.8615 570.474 93.4138V145C570.474 145.552 570.026 146 569.474 146H568.368H552.526C551.974 146 551.526 145.552 551.526 145V93.4138C551.526 92.8615 551.079 92.4138 550.526 92.4138H542C541.448 92.4138 541 91.9661 541 91.4138V73Z" fill="white"/>
</svg>
