<!-- icon666.com - MILLIONS OF FREE VECTOR ICONS --><svg id="exclamation_point" viewBox="0 0 512 512" xmlns="http://www.w3.org/2000/svg" data-name="exclamation point"><path d="m256 0c-141.38 0-256 114.62-256 256s114.62 256 256 256 256-114.62 256-256-114.62-256-256-256zm-30.1 123.8a30.1 30.1 0 0 1 60.2 0v187a30.13 30.13 0 0 1 -30.1 30.1h-.11a30 30 0 0 1 -29.99-29.9zm60.4 265.1v.02a29.377 29.377 0 0 1 -29.36 29.38h-1.64a29.375 29.375 0 0 1 -29.4-29.36v-.04a29.375 29.375 0 0 1 29.36-29.4h1.64a29.375 29.375 0 0 1 29.4 29.36z"></path></svg>